<svg xmlns="http://www.w3.org/2000/svg" viewBox="0 0 219.5 40.22"><defs><style>.cls-1{fill:#566687;}</style></defs><title>label</title><g id="レイヤー_2" data-name="レイヤー 2"><g id="load"><polygon class="cls-1" points="43.91 0 37.92 0 37.92 25.41 43.91 25.41 43.91 24.41 38.92 24.41 38.92 1 43.91 1 43.91 0 43.91 0"/><polygon class="cls-1" points="176.5 25.41 182.49 25.41 182.49 0 176.5 0 176.5 1 181.49 1 181.49 24.41 176.5 24.41 176.5 25.41 176.5 25.41"/><path class="cls-1" d="M53.87,7.32c-.42,0-.63.14-.63.43v6.58a2.73,2.73,0,0,0,1,2.21,4.77,4.77,0,0,0,3.07.83,4.76,4.76,0,0,0,3.06-.83,2.73,2.73,0,0,0,1-2.21V7.75c0-.29-.24-.43-.72-.43V6.8h4v.51c-.42,0-.63.15-.63.43V15a3.83,3.83,0,0,1-.4,1.71,4,4,0,0,1-1.22,1.44,6.07,6.07,0,0,1-2.09,1,12.64,12.64,0,0,1-6,0,6.15,6.15,0,0,1-2.09-1A4.14,4.14,0,0,1,51,16.7,4,4,0,0,1,50.6,15V7.74a.35.35,0,0,0-.17-.33,1.54,1.54,0,0,0-.66-.1V6.8h4.1Z"/><path class="cls-1" d="M69.08,18.89c.35,0,.52-.14.52-.43V7.74c0-.28-.17-.43-.52-.43V6.8h4.21v.51c-.13,0-.2.07-.2.15s.21.35.63.77l6.88,7.28V7.74c0-.28-.19-.43-.57-.43V6.8h3.49v.51c-.34,0-.51.15-.51.43V18.46c0,.29.17.43.51.43v.52H79.8v-.52c.13,0,.2-.05.2-.14s-.09-.21-.27-.41l-.62-.65L72,10.12v8.34c0,.29.2.43.61.43v.52H69.08Z"/><path class="cls-1" d="M88.54,18.89a.55.55,0,0,0,.24-.12c.07-.05.1-.19.1-.4V7.89a1,1,0,0,0-.07-.49.34.34,0,0,0-.27-.09V6.8h4v.51c-.19,0-.29.09-.29.26a.62.62,0,0,0,.1.3l.3.53,3.5,6.45,3.52-6.42c.14-.23.24-.41.32-.56a.85.85,0,0,0,.11-.3c0-.17-.07-.26-.23-.26V6.8h4v.51a.56.56,0,0,0-.27.08c-.09,0-.13.15-.13.3V18.46a.39.39,0,0,0,.13.33.43.43,0,0,0,.27.1v.52h-3.32v-.52c.4,0,.57-.14.52-.43v-8H101l-4.87,9h-.23l-4.62-9h0v8.05c0,.29.16.43.48.43v.52H88.54Z"/><path class="cls-1" d="M115.3,6.63a10.53,10.53,0,0,1,3,.4,7.22,7.22,0,0,1,2.42,1.2,5.76,5.76,0,0,1,1.63,2,6.23,6.23,0,0,1,.61,2.85,6.23,6.23,0,0,1-.61,2.85,5.58,5.58,0,0,1-1.63,2,6.48,6.48,0,0,1-2.42,1.16,12.39,12.39,0,0,1-5.93,0A6.48,6.48,0,0,1,109.91,18a5.58,5.58,0,0,1-1.63-2,6.23,6.23,0,0,1-.61-2.85,6.23,6.23,0,0,1,.61-2.85,5.76,5.76,0,0,1,1.63-2A7.22,7.22,0,0,1,112.33,7,10.55,10.55,0,0,1,115.3,6.63Zm0,2.12a5.53,5.53,0,0,0-1.8.3,5.15,5.15,0,0,0-1.56.86,4.18,4.18,0,0,0-1.1,1.36,3.86,3.86,0,0,0-.42,1.83,3.93,3.93,0,0,0,.42,1.84,4.4,4.4,0,0,0,1.1,1.36,5.15,5.15,0,0,0,1.56.86,5.52,5.52,0,0,0,3.59,0,5.15,5.15,0,0,0,1.56-.86,4.4,4.4,0,0,0,1.1-1.36,3.93,3.93,0,0,0,.42-1.84,3.86,3.86,0,0,0-.42-1.83,4.18,4.18,0,0,0-1.1-1.36,5.15,5.15,0,0,0-1.56-.86A5.51,5.51,0,0,0,115.3,8.75Z"/><path class="cls-1" d="M134.2,6.8a8,8,0,0,1,4,.84,3.09,3.09,0,0,1,1.43,2.88,3.18,3.18,0,0,1-.29,1.38,3.29,3.29,0,0,1-.76,1,3.88,3.88,0,0,1-1,.72,6.39,6.39,0,0,1-1.18.42l2.81,4.09a1.74,1.74,0,0,0,.5.48,2.81,2.81,0,0,0,.59.24v.52h-4.38v-.52c.24,0,.37-.09.37-.26a1.84,1.84,0,0,0-.43-.89l-2.26-3.38h-4v4.1a.35.35,0,0,0,.19.33.7.7,0,0,0,.36.1v.52H126.3v-.52c.34,0,.51-.14.51-.43V7.74c0-.28-.17-.43-.51-.43V6.8Zm0,5.44c1.87,0,2.8-.59,2.8-1.77a1.28,1.28,0,0,0-.67-1.14,4.28,4.28,0,0,0-2.13-.41h-4.53v3.32Z"/><path class="cls-1" d="M142,18.89a.9.9,0,0,0,.56-.33,3.55,3.55,0,0,0,.33-.5l4.26-9.31.28-.65a1.37,1.37,0,0,0,.1-.47.25.25,0,0,0-.08-.22l-.15-.1V6.8h4.32v.51a.61.61,0,0,1-.18.09c-.07,0-.1.1-.1.23a.94.94,0,0,0,.13.42l.27.55,4.64,9.74a1,1,0,0,0,.32.38,1.4,1.4,0,0,0,.37.17v.52H153V19a.64.64,0,0,0,.3-.09.34.34,0,0,0,.16-.32.78.78,0,0,0-.06-.31c0-.1-.09-.22-.14-.37l-.78-1.64h-6.13l-.8,1.55a3.7,3.7,0,0,0-.19.42,1.09,1.09,0,0,0-.07.33c0,.15.05.24.15.28a1,1,0,0,0,.4.06v.52H142Zm9.57-4.76-2.32-4.81-2,4.81Z"/><path class="cls-1" d="M163.83,6.8v.51c-.44,0-.66.15-.66.43v9.54h7.74a1,1,0,0,0,.57-.15.53.53,0,0,0,.23-.45h.51v3h-.51a.24.24,0,0,0-.23-.26l-.57,0H159.67v-.52c.5,0,.75-.14.75-.43V7.74c0-.28-.25-.43-.75-.43V6.8Z"/><path class="cls-1" d="M2.81,40.07H1.25a1.71,1.71,0,0,1-1.14-.41A.34.34,0,0,1,0,39.42a.33.33,0,0,1,.33-.32c.24,0,.37.34.92.34H2.81c.49,0,.74-.16.74-.46a.49.49,0,0,0-.36-.55L.87,37.51c-.5-.2-.73-.48-.73-.92s.35-1,1.31-1H2.86A1.55,1.55,0,0,1,4,36a.34.34,0,0,1,.1.23.31.31,0,0,1-.32.32c-.26,0-.25-.33-.91-.33H1.45c-.63,0-.68.22-.68.33s0,.22.37.35l2.31.93A1,1,0,0,1,4.18,39C4.18,39.53,3.83,40.07,2.81,40.07Z"/><path class="cls-1" d="M10.18,40.21a.33.33,0,0,1-.32-.31l-.09-3.08a.56.56,0,0,0-.62-.56h-.7l-1.58.88V39.9a.32.32,0,0,1-.63,0V34.28a.32.32,0,1,1,.63,0v2.13l1.34-.74a.42.42,0,0,1,.16,0h.78a1.19,1.19,0,0,1,1.25,1.19l.09,3.06v0A.32.32,0,0,1,10.18,40.21Z"/><path class="cls-1" d="M16.69,39.45l-.39.28a1.73,1.73,0,0,1-.93.34H14.21a1.54,1.54,0,0,1-.94-.34l-.38-.28a.87.87,0,0,1-.34-.82V37.06a.93.93,0,0,1,.34-.83l.36-.27a1.51,1.51,0,0,1,1-.33h1.16a1.54,1.54,0,0,1,1,.33l.36.27a.92.92,0,0,1,.32.83v1.57A.91.91,0,0,1,16.69,39.45Zm-.31-2.39c0-.21,0-.3-.11-.36L16,36.47a.91.91,0,0,0-.59-.21H14.21a.92.92,0,0,0-.59.21l-.32.23c-.08.06-.13.15-.13.36v1.57c0,.21,0,.28.13.35l.34.25a.91.91,0,0,0,.57.21h1.16a.9.9,0,0,0,.56-.21l.34-.25c.08-.06.11-.14.11-.35Z"/><path class="cls-1" d="M22.7,36.6c-.28,0-.25-.34-.89-.34h-.43l-1.66,1.22V39.9a.33.33,0,0,1-.32.31.31.31,0,0,1-.31-.31V36a.31.31,0,0,1,.31-.32.32.32,0,0,1,.32.32v.74l1.37-1a.35.35,0,0,1,.18-.06h.54c.35,0,1.19.19,1.19.66A.29.29,0,0,1,22.7,36.6Z"/><path class="cls-1" d="M27.73,40.07h-.55c-.88,0-1.37-.44-1.37-1.26V36.26h-.63a.32.32,0,1,1,0-.63h.63V34.28a.32.32,0,1,1,.63,0v1.35h1.88a.32.32,0,0,1,0,.63H26.44v2.55c0,.42.15.63.74.63h.55c1,0,.54-.72,1-.72a.32.32,0,0,1,.32.32A1.2,1.2,0,0,1,27.73,40.07Z"/><path class="cls-1" d="M41.05,40.21a.32.32,0,0,1-.32-.31l-.09-3.08a.51.51,0,0,0-.52-.56H39.2l-.63.36a1.27,1.27,0,0,1,0,.2V39.9a.32.32,0,0,1-.31.31A.33.33,0,0,1,38,39.9V36.82a.5.5,0,0,0-.52-.56h-.86l-.67.38V39.9a.31.31,0,0,1-.31.31.33.33,0,0,1-.32-.31V36a.32.32,0,0,1,.32-.32.31.31,0,0,1,.31.29l.44-.24a.27.27,0,0,1,.15,0h.94a1.1,1.1,0,0,1,.89.41l.64-.36a.33.33,0,0,1,.16,0h1a1.15,1.15,0,0,1,1.15,1.19l.09,3.06A.33.33,0,0,1,41.05,40.21Z"/><path class="cls-1" d="M47.57,39.45l-.39.28a1.73,1.73,0,0,1-.93.34H45.08a1.53,1.53,0,0,1-.93-.34l-.39-.28a.89.89,0,0,1-.34-.82V37.06a1,1,0,0,1,.34-.83l.37-.27a1.51,1.51,0,0,1,.95-.33h1.17a1.54,1.54,0,0,1,1,.33l.36.27a.92.92,0,0,1,.32.83v1.57A.91.91,0,0,1,47.57,39.45Zm-.31-2.39c0-.21,0-.3-.11-.36l-.31-.23a.91.91,0,0,0-.59-.21H45.08a.92.92,0,0,0-.58.21l-.32.23c-.09.06-.13.15-.13.36v1.57c0,.21,0,.28.13.35l.34.25a.9.9,0,0,0,.56.21h1.17a.9.9,0,0,0,.56-.21l.34-.25c.08-.06.11-.14.11-.35Z"/><path class="cls-1" d="M54.12,36.77,52.49,39.9a.32.32,0,0,1-.29.17h-.29a.3.3,0,0,1-.27-.17L50,36.77a.28.28,0,0,1,0-.13v-.82a.32.32,0,0,1,.32-.32.31.31,0,0,1,.31.32v.74l1.48,2.79,1.46-2.79v-.74a.32.32,0,0,1,.32-.32.31.31,0,0,1,.31.32v.82A.31.31,0,0,1,54.12,36.77Z"/><path class="cls-1" d="M57.86,40.21a.32.32,0,0,1-.32-.31V36.26h-1a.32.32,0,1,1,0-.63h1.32a.31.31,0,0,1,.31.32V39.9A.32.32,0,0,1,57.86,40.21Zm0-5.65h-.48a.32.32,0,0,1-.32-.31V33.9a.32.32,0,0,1,.32-.32h.48a.32.32,0,0,1,.31.32v.35A.32.32,0,0,1,57.9,34.56Z"/><path class="cls-1" d="M64.79,38.13H61.3v.49c0,.24,0,.29.15.4l.35.3c.11.09.19.12.7.12h2.21a.32.32,0,0,1,.31.32.31.31,0,0,1-.31.31H62.5c-.57,0-.82,0-1.07-.24L61,39.48a.94.94,0,0,1-.34-.86V37a1,1,0,0,1,.38-.83l.56-.42a1,1,0,0,1,.7-.16h1a1.54,1.54,0,0,1,1,.27l.37.28a1.07,1.07,0,0,1,.37,1v.68A.32.32,0,0,1,64.79,38.13Zm-.32-1c0-.29,0-.38-.16-.48L64,36.4c-.14-.11-.27-.14-.62-.14h-1a.57.57,0,0,0-.39.08l-.47.34c-.13.09-.15.18-.15.36v.46h3.17Z"/><path class="cls-1" d="M74.86,37.42H72.07a.3.3,0,0,1-.3-.31.29.29,0,0,1,.3-.3h2.79a.3.3,0,0,1,.31.3A.31.31,0,0,1,74.86,37.42Z"/><path class="cls-1" d="M85.8,40.07a.31.31,0,0,1-.31-.31v-.4L84.33,40a.32.32,0,0,1-.16,0h-.7a1.39,1.39,0,0,1-1.53-1.18l-.1-3.08a.32.32,0,0,1,.31-.31.31.31,0,0,1,.32.31l.09,3.08c0,.31.47.55.91.55h.62l1.4-.8V35.82a.32.32,0,1,1,.63,0v3.94A.31.31,0,0,1,85.8,40.07Z"/><path class="cls-1" d="M92.15,40.21a.32.32,0,0,1-.32-.31l-.09-3.08a.55.55,0,0,0-.61-.56h-1l-1.33.89V39.9a.32.32,0,0,1-.63,0V36a.32.32,0,1,1,.63,0v.44l1.06-.7a.28.28,0,0,1,.18-.06h1.08a1.18,1.18,0,0,1,1.24,1.19l.09,3.06v0A.32.32,0,0,1,92.15,40.21Z"/><path class="cls-1" d="M100.3,40.21a.32.32,0,0,1-.32-.31l-.09-3.08a.51.51,0,0,0-.52-.56h-.92l-.63.36a1.27,1.27,0,0,1,0,.2V39.9a.31.31,0,0,1-.62,0V36.82a.51.51,0,0,0-.53-.56h-.86l-.67.38V39.9a.31.31,0,0,1-.31.31.33.33,0,0,1-.32-.31V36a.32.32,0,0,1,.32-.32.31.31,0,0,1,.31.29l.44-.24a.27.27,0,0,1,.15,0h.94a1.1,1.1,0,0,1,.89.41l.65-.36a.27.27,0,0,1,.15,0h1a1.16,1.16,0,0,1,1.16,1.19l.08,3.06A.33.33,0,0,1,100.3,40.21Z"/><path class="cls-1" d="M106.82,39.45l-.39.28a1.73,1.73,0,0,1-.93.34h-1.17a1.53,1.53,0,0,1-.93-.34l-.39-.28a.89.89,0,0,1-.34-.82V37.06a1,1,0,0,1,.34-.83l.37-.27a1.51,1.51,0,0,1,1-.33h1.17a1.54,1.54,0,0,1,1,.33l.36.27a.92.92,0,0,1,.32.83v1.57A.91.91,0,0,1,106.82,39.45Zm-.31-2.39c0-.21,0-.3-.11-.36l-.31-.23a.91.91,0,0,0-.59-.21h-1.17a.92.92,0,0,0-.58.21l-.32.23c-.09.06-.13.15-.13.36v1.57c0,.21,0,.28.13.35l.34.25a.9.9,0,0,0,.56.21h1.17a.9.9,0,0,0,.56-.21l.34-.25c.08-.06.11-.14.11-.35Z"/><path class="cls-1" d="M112.82,36.6c-.27,0-.24-.34-.88-.34h-.44l-1.66,1.22V39.9a.32.32,0,0,1-.32.31.31.31,0,0,1-.3-.31V36a.31.31,0,0,1,.3-.32.32.32,0,0,1,.32.32v.74l1.38-1a.35.35,0,0,1,.18-.06h.54c.35,0,1.19.19,1.19.66A.29.29,0,0,1,112.82,36.6Z"/><path class="cls-1" d="M119.22,40.07a.32.32,0,0,1-.32-.31v-.19l-1,.47a.35.35,0,0,1-.13,0h-1.42c-1,0-1.34-.55-1.34-1.15V38.6a1.19,1.19,0,0,1,1.34-1.23h2.51v-.51c0-.35-.25-.6-.81-.6H116a.32.32,0,1,1,0-.63H118a1.26,1.26,0,0,1,1.44,1.23l.06,2.9A.31.31,0,0,1,119.22,40.07ZM118.86,38h-2.52c-.54,0-.71.28-.71.6v.3c0,.25.06.54.71.54h1.34l1.2-.56Z"/><path class="cls-1" d="M123.53,40.07h-.85a.31.31,0,0,1-.31-.31V34.59h-.49a.32.32,0,0,1-.3-.31.31.31,0,0,1,.3-.32h.8a.32.32,0,0,1,.32.32v5.16h.53a.32.32,0,0,1,.32.32A.31.31,0,0,1,123.53,40.07Z"/><path class="cls-1" d="M134.19,39.45l-.39.28a1.73,1.73,0,0,1-.93.34h-1.16a1.54,1.54,0,0,1-.94-.34l-.38-.28a.87.87,0,0,1-.34-.82V37.06a.93.93,0,0,1,.34-.83l.36-.27a1.51,1.51,0,0,1,1-.33h1.16a1.54,1.54,0,0,1,1,.33l.36.27a.92.92,0,0,1,.32.83v1.57A.91.91,0,0,1,134.19,39.45Zm-.31-2.39c0-.21,0-.3-.11-.36l-.31-.23a.91.91,0,0,0-.59-.21h-1.16a.92.92,0,0,0-.59.21l-.32.23c-.08.06-.13.15-.13.36v1.57c0,.21,0,.28.13.35l.34.25a.91.91,0,0,0,.57.21h1.16a.9.9,0,0,0,.56-.21l.34-.25c.08-.06.11-.14.11-.35Z"/><path class="cls-1" d="M140.41,34.59h-1.09c-.6,0-.82.33-.82.73v.31h1.1a.32.32,0,0,1,0,.63h-1.1V39.9a.32.32,0,0,1-.31.31.33.33,0,0,1-.32-.31V36.26h-.58a.32.32,0,1,1,0-.63h.58v-.31A1.31,1.31,0,0,1,139.32,34h1.09a.31.31,0,0,1,.31.32A.31.31,0,0,1,140.41,34.59Z"/><path class="cls-1" d="M146,34.6h-1.1c-.59,0-.8.32-.8.72v.31h1.09a.33.33,0,0,1,.31.32.32.32,0,0,1-.31.31H144.1V39.9a.33.33,0,0,1-.31.32.33.33,0,0,1-.32-.32V36.26h-.6a.31.31,0,0,1-.31-.31.32.32,0,0,1,.31-.32h.6v-.31A1.31,1.31,0,0,1,144.9,34H146a.31.31,0,0,1,.31.32A.33.33,0,0,1,146,34.6Zm2.93,5.62a.33.33,0,0,1-.31-.32V36.26h-1a.32.32,0,0,1-.31-.31.33.33,0,0,1,.31-.32h1.32a.32.32,0,0,1,.32.32V39.9A.32.32,0,0,1,148.93,40.22Zm0-5.66h-.47a.31.31,0,0,1-.31-.31V33.9a.31.31,0,0,1,.31-.32H149a.32.32,0,0,1,.32.32v.35A.31.31,0,0,1,149,34.56Z"/><path class="cls-1" d="M155.65,40.07H154.1a1.5,1.5,0,0,1-1.18-.33l-.79-.58a.94.94,0,0,1-.36-.86v-.9a.94.94,0,0,1,.36-.86l.8-.6a1.47,1.47,0,0,1,1.17-.31h1.55a.32.32,0,0,1,0,.63H154.1c-.52,0-.57,0-.8.18l-.75.57c-.12.08-.15.17-.15.39v.9c0,.22,0,.29.15.38l.75.56c.25.18.29.2.8.2h1.55a.33.33,0,0,1,.3.32A.32.32,0,0,1,155.65,40.07Z"/><path class="cls-1" d="M159.65,40.21a.33.33,0,0,1-.32-.31V36.26h-1a.32.32,0,1,1,0-.63h1.32A.31.31,0,0,1,160,36V39.9A.31.31,0,0,1,159.65,40.21Zm0-5.65h-.47a.32.32,0,0,1-.32-.31V33.9a.32.32,0,0,1,.32-.32h.47a.31.31,0,0,1,.31.32v.35A.31.31,0,0,1,159.69,34.56Z"/><path class="cls-1" d="M166.69,40.07a.31.31,0,0,1-.32-.31v-.19l-1,.47a.39.39,0,0,1-.14,0h-1.41c-1,0-1.34-.55-1.34-1.15V38.6a1.19,1.19,0,0,1,1.34-1.23h2.51v-.51c0-.35-.25-.6-.81-.6h-2.08a.32.32,0,1,1,0-.63h2.08a1.26,1.26,0,0,1,1.44,1.23l.06,2.9A.31.31,0,0,1,166.69,40.07ZM166.33,38h-2.52c-.54,0-.71.28-.71.6v.3c0,.25.06.54.71.54h1.34l1.2-.56Z"/><path class="cls-1" d="M171,40.07h-.85a.31.31,0,0,1-.31-.31V34.59h-.49a.33.33,0,0,1-.31-.31.32.32,0,0,1,.31-.32h.8a.32.32,0,0,1,.32.32v5.16H171a.32.32,0,0,1,.32.32A.31.31,0,0,1,171,40.07Z"/><path class="cls-1" d="M183.14,38.41a.25.25,0,0,1,0,.15l-.79,1.36a.33.33,0,0,1-.28.15h-.27a.33.33,0,0,1-.23-.09l-1.13-1.14L179.24,40a.29.29,0,0,1-.21.09h-.28a.35.35,0,0,1-.28-.15l-.8-1.36a.54.54,0,0,1,0-.15l-.12-2.6a.31.31,0,0,1,.32-.31.32.32,0,0,1,.31.31l.11,2.5.66,1.11,1.16-1.17V37a.31.31,0,0,1,.31-.32.33.33,0,0,1,.32.32v1.21l1.15,1.17.66-1.11.12-2.5a.32.32,0,0,1,.31-.31h0a.32.32,0,0,1,.3.31v0Z"/><path class="cls-1" d="M189.45,38.13H186v.49c0,.24,0,.29.15.4l.35.3c.11.09.19.12.7.12h2.2a.31.31,0,0,1,.31.32.31.31,0,0,1-.31.31h-2.2c-.57,0-.82,0-1.07-.24l-.42-.35a.92.92,0,0,1-.34-.86V37a1,1,0,0,1,.37-.83l.57-.42a1,1,0,0,1,.7-.16h1a1.51,1.51,0,0,1,1,.27l.38.28a1.09,1.09,0,0,1,.37,1v.68A.32.32,0,0,1,189.45,38.13Zm-.32-1c0-.29,0-.38-.16-.48l-.33-.26a.9.9,0,0,0-.63-.14h-1c-.23,0-.29,0-.39.08l-.47.34c-.13.09-.15.18-.15.36v.46h3.17Z"/><path class="cls-1" d="M195.75,39.43l-.52.4a1.09,1.09,0,0,1-.83.24H194a1.27,1.27,0,0,1-1-.32l-.55-.41v.42a.31.31,0,0,1-.31.31.32.32,0,0,1-.32-.31V34.28a.32.32,0,0,1,.32-.32.31.31,0,0,1,.31.32v2.07l.55-.41a1.08,1.08,0,0,1,.89-.31h.5a1.09,1.09,0,0,1,.83.25l.44.33A.93.93,0,0,1,196,37v1.73A.73.73,0,0,1,195.75,39.43ZM195.4,37c0-.18,0-.27-.14-.36l-.41-.29a.56.56,0,0,0-.45-.13h-.5a.72.72,0,0,0-.52.18l-.75.57a.46.46,0,0,0-.17.22v1.26a.38.38,0,0,0,.17.19l.75.56a.75.75,0,0,0,.58.2h.44a.55.55,0,0,0,.45-.12l.47-.35c.07,0,.08-.09.08-.24Z"/><path class="cls-1" d="M200.91,40.07h-1.57a1.7,1.7,0,0,1-1.13-.41.34.34,0,0,1-.11-.24.33.33,0,0,1,.33-.32c.23,0,.37.34.91.34h1.57c.48,0,.73-.16.73-.46a.49.49,0,0,0-.36-.55L199,37.51a1,1,0,0,1-.72-.92c0-.52.35-1,1.31-1H201a1.59,1.59,0,0,1,1.14.41.34.34,0,0,1,.1.23.32.32,0,0,1-.32.32c-.27,0-.26-.33-.92-.33h-1.4c-.63,0-.68.22-.68.33s0,.22.37.35l2.31.93a1,1,0,0,1,.72,1.11C202.27,39.53,201.92,40.07,200.91,40.07Z"/><path class="cls-1" d="M206,40.21a.32.32,0,0,1-.32-.31V36.26h-1a.32.32,0,1,1,0-.63H206a.31.31,0,0,1,.31.32V39.9A.32.32,0,0,1,206,40.21Zm0-5.65h-.48a.32.32,0,0,1-.32-.31V33.9a.32.32,0,0,1,.32-.32H206a.32.32,0,0,1,.31.32v.35A.32.32,0,0,1,206,34.56Z"/><path class="cls-1" d="M211.65,40.07h-.55c-.88,0-1.37-.44-1.37-1.26V36.26h-.63a.32.32,0,1,1,0-.63h.63V34.28a.32.32,0,1,1,.63,0v1.35h1.88a.32.32,0,0,1,0,.63h-1.88v2.55c0,.42.15.63.74.63h.55c1,0,.54-.72,1-.72A.32.32,0,0,1,213,39,1.2,1.2,0,0,1,211.65,40.07Z"/><path class="cls-1" d="M219.19,38.13h-3.48v.49c0,.24,0,.29.14.4l.35.3c.11.09.2.12.7.12h2.21a.32.32,0,0,1,.31.32.31.31,0,0,1-.31.31H216.9c-.57,0-.81,0-1.07-.24l-.41-.35a.92.92,0,0,1-.34-.86V37a.94.94,0,0,1,.37-.83l.57-.42a1,1,0,0,1,.7-.16h1a1.54,1.54,0,0,1,1,.27l.37.28a1.07,1.07,0,0,1,.37,1v.68A.31.31,0,0,1,219.19,38.13Zm-.32-1c0-.29,0-.38-.15-.48l-.33-.26a.91.91,0,0,0-.63-.14h-1c-.24,0-.29,0-.4.08l-.47.34c-.12.09-.14.18-.14.36v.46h3.16Z"/></g></g></svg>