<svg xmlns="http://www.w3.org/2000/svg" viewBox="0 0 381.63 7.1"><defs><style>.cls-1{fill:#444;}</style></defs><title>copyright</title><g id="レイヤー_2" data-name="レイヤー 2"><g id="top"><path class="cls-1" d="M7.65,6H7.5a1.31,1.31,0,0,0-.37.15,7.42,7.42,0,0,1-.74.36,7.16,7.16,0,0,1-1,.34A5.32,5.32,0,0,1,4.17,7a5.91,5.91,0,0,1-1.58-.21,3.91,3.91,0,0,1-1.33-.64A3.12,3.12,0,0,1,.34,5,3.23,3.23,0,0,1,0,3.5,3.17,3.17,0,0,1,.34,2,3.07,3.07,0,0,1,1.26.89,4,4,0,0,1,2.59.22,5.53,5.53,0,0,1,4.17,0a6.33,6.33,0,0,1,1.2.1c.36.07.68.15,1,.23A4.22,4.22,0,0,1,7,.55a1,1,0,0,0,.28.1A.13.13,0,0,0,7.35.59.9.9,0,0,0,7.42.48l.2.16-1,1.57-.13-.09V2a.64.64,0,0,1,0-.09.56.56,0,0,0-.26-.29,2.86,2.86,0,0,0-.58-.27c-.23-.07-.48-.14-.73-.19a3.86,3.86,0,0,0-.71-.08,3.3,3.3,0,0,0-1,.16,2.4,2.4,0,0,0-.87.45,2.28,2.28,0,0,0-.6.74,2.25,2.25,0,0,0-.22,1,2.26,2.26,0,0,0,.22,1,2.28,2.28,0,0,0,.6.74,2.4,2.4,0,0,0,.87.45,3.3,3.3,0,0,0,1,.16A3.81,3.81,0,0,0,5,5.71a4.76,4.76,0,0,0,.83-.25,2.55,2.55,0,0,0,.64-.33c.17-.13.25-.25.25-.36a.28.28,0,0,0,0-.16l.18-.1.86,1.38Z"/><path class="cls-1" d="M14,1.12a5,5,0,0,1,1.35.18,3.34,3.34,0,0,1,1.1.55,2.58,2.58,0,0,1,.74.92,2.92,2.92,0,0,1,.27,1.29,2.93,2.93,0,0,1-.27,1.3,2.58,2.58,0,0,1-.74.92,3.12,3.12,0,0,1-1.1.53A5.94,5.94,0,0,1,14,7a5.81,5.81,0,0,1-1.35-.16,3,3,0,0,1-1.1-.53,2.58,2.58,0,0,1-.74-.92,2.8,2.8,0,0,1-.28-1.3,2.79,2.79,0,0,1,.28-1.29,2.58,2.58,0,0,1,.74-.92,3.25,3.25,0,0,1,1.1-.55A4.89,4.89,0,0,1,14,1.12Zm0,1a2.57,2.57,0,0,0-.82.14,2.34,2.34,0,0,0-.71.39,2,2,0,0,0-.5.62,1.85,1.85,0,0,0-.19.83A1.89,1.89,0,0,0,12,4.9a2,2,0,0,0,.5.62,2.34,2.34,0,0,0,.71.39A2.56,2.56,0,0,0,14,6a2.5,2.5,0,0,0,.81-.13,2.23,2.23,0,0,0,.71-.39A1.88,1.88,0,0,0,16,4.9a1.76,1.76,0,0,0,.19-.84A1.72,1.72,0,0,0,16,3.23a1.88,1.88,0,0,0-.5-.62,2.23,2.23,0,0,0-.71-.39A2.51,2.51,0,0,0,14,2.08Z"/><path class="cls-1" d="M20.46,1.63c0-.13-.1-.2-.32-.2V1.2h3.79a2.65,2.65,0,0,1,1.58.38A1.51,1.51,0,0,1,26,2.89a1.46,1.46,0,0,1-.53,1.3,2.82,2.82,0,0,1-1.58.36H21.71v2c0,.13.1.2.28.2v.23H20.14V6.7c.22,0,.32-.07.32-.2Zm3.44,2a1.31,1.31,0,0,0,.63-.13.59.59,0,0,0,.26-.56.63.63,0,0,0-.26-.57,1.2,1.2,0,0,0-.63-.16H21.71V3.58Z"/><path class="cls-1" d="M28.59,1.65a.5.5,0,0,0-.22-.16.61.61,0,0,0-.25-.06V1.2h2.15v.23a.3.3,0,0,0-.14.05.14.14,0,0,0-.08.12.24.24,0,0,0,.05.14l.12.16,1.32,1.72L32.7,2c.07-.12.13-.2.17-.26a.27.27,0,0,0,.06-.16c0-.07,0-.11-.07-.13a.28.28,0,0,0-.13,0V1.2h2v.23a.54.54,0,0,0-.35.18q-.18.18-.33.36l-2,2.58v2c0,.13.08.2.24.2v.23H30.57V6.7c.16,0,.24-.07.24-.2v-2Z"/><path class="cls-1" d="M41,1.2a3.66,3.66,0,0,1,1.81.38,1.4,1.4,0,0,1,.65,1.31,1.54,1.54,0,0,1-.13.63A1.48,1.48,0,0,1,43,4a1.67,1.67,0,0,1-.47.33,3.46,3.46,0,0,1-.54.19l1.28,1.86a.64.64,0,0,0,.23.21,1.11,1.11,0,0,0,.27.12v.23h-2V6.7c.12,0,.17,0,.17-.12a.86.86,0,0,0-.19-.41l-1-1.53H38.86V6.5a.15.15,0,0,0,.08.15.37.37,0,0,0,.16,0v.23H37.37V6.7c.16,0,.24-.07.24-.2V1.63c0-.13-.08-.2-.24-.2V1.2Zm0,2.47c.85,0,1.28-.27,1.28-.8a.6.6,0,0,0-.31-.52,2,2,0,0,0-1-.19H38.88V3.67Z"/><path class="cls-1" d="M46.79,6.7a.65.65,0,0,0,.29,0,.16.16,0,0,0,.07-.15V1.63a.16.16,0,0,0-.07-.15.65.65,0,0,0-.29-.05V1.2h2v.23c-.24,0-.36.07-.36.2V6.5c0,.13.12.2.36.2v.23h-2Z"/><path class="cls-1" d="M57.39,3.09,57.24,3c0-.09,0-.14,0-.15s0-.16-.17-.25a2,2,0,0,0-.44-.26,4,4,0,0,0-1.31-.26,3.87,3.87,0,0,0-.92.11,2.27,2.27,0,0,0-.75.36,1.66,1.66,0,0,0-.52.62,2,2,0,0,0-.2.92,1.87,1.87,0,0,0,.21.92,1.74,1.74,0,0,0,.54.6,2.36,2.36,0,0,0,.74.33,3.09,3.09,0,0,0,.78.1A7.17,7.17,0,0,0,56.28,6a3.43,3.43,0,0,0,.92-.3V4.85H55.86a.49.49,0,0,0-.25.05.31.31,0,0,0-.13.22h-.24V3.78h.24a.23.23,0,0,0,.13.17.87.87,0,0,0,.25,0h2.55v.23a.35.35,0,0,0-.16.12.45.45,0,0,0,0,.19V5.77a.22.22,0,0,0,0,.16.31.31,0,0,0,.16.1v.16L58,6.4a4.57,4.57,0,0,1-.64.27,4.86,4.86,0,0,1-.89.21A6.59,6.59,0,0,1,55.37,7a5.62,5.62,0,0,1-1.53-.19,3.23,3.23,0,0,1-1.16-.57A2.58,2.58,0,0,1,52,5.3a3.08,3.08,0,0,1-.25-1.24A3,3,0,0,1,52,2.83a2.62,2.62,0,0,1,.73-.92,3.43,3.43,0,0,1,1.16-.59,5.61,5.61,0,0,1,1.53-.2,4,4,0,0,1,.9.09,5.69,5.69,0,0,1,.68.2,4.36,4.36,0,0,1,.48.19.72.72,0,0,0,.28.09.3.3,0,0,0,.15,0A.38.38,0,0,0,58,1.59l.16.08Z"/><path class="cls-1" d="M63.11,6.5a.18.18,0,0,0,.06.15.24.24,0,0,0,.14,0v.23H61.67V6.7a.21.21,0,0,0,.13,0,.18.18,0,0,0,.06-.15V1.63a.18.18,0,0,0-.06-.15.21.21,0,0,0-.13-.05V1.2h1.64v.23a.24.24,0,0,0-.14.05.18.18,0,0,0-.06.15V3.46H66.6V1.63a.18.18,0,0,0-.06-.15.19.19,0,0,0-.13-.05V1.2h1.64v.23a.24.24,0,0,0-.14.05.18.18,0,0,0-.06.15V6.5a.18.18,0,0,0,.06.15.24.24,0,0,0,.14,0v.23H66.41V6.7a.19.19,0,0,0,.13,0,.18.18,0,0,0,.06-.15v-2H63.11Z"/><path class="cls-1" d="M73,6.7a.27.27,0,0,0,.13,0,.18.18,0,0,0,.06-.15V2.16H71.45a.46.46,0,0,0-.2,0,.2.2,0,0,0-.09.17h-.23V.89h.23a.27.27,0,0,0,.09.24.31.31,0,0,0,.2.07h4.64a.28.28,0,0,0,.19-.07.27.27,0,0,0,.09-.24h.24V2.38h-.24a.2.2,0,0,0-.09-.17.41.41,0,0,0-.19,0h-1.7V6.5c0,.13.08.2.24.2v.23H73Z"/><path class="cls-1" d="M87.51,7a3.58,3.58,0,0,1-1.36-.26A3.12,3.12,0,0,1,85.07,6a3.36,3.36,0,0,1-.73-1.1,3.65,3.65,0,0,1-.26-1.38,3.74,3.74,0,0,1,.26-1.39A3.4,3.4,0,0,1,85.07,1,3.55,3.55,0,0,1,86.15.27,3.4,3.4,0,0,1,87.51,0a3.45,3.45,0,0,1,1.37.27A3.43,3.43,0,0,1,90,1a3.55,3.55,0,0,1,.72,1.11,3.74,3.74,0,0,1,.26,1.39,3.65,3.65,0,0,1-.26,1.38A3.5,3.5,0,0,1,90,6a3,3,0,0,1-1.08.71A3.63,3.63,0,0,1,87.51,7Zm0-.65a2.64,2.64,0,0,0,1.06-.22,2.73,2.73,0,0,0,.85-.6A2.8,2.8,0,0,0,90,4.61a3,3,0,0,0,.2-1.09A3.17,3.17,0,0,0,90,2.41a3.07,3.07,0,0,0-.55-.91,2.46,2.46,0,0,0-.85-.61,2.58,2.58,0,0,0-2.13,0,2.46,2.46,0,0,0-.85.61,2.9,2.9,0,0,0-.56.91,3.17,3.17,0,0,0-.2,1.11,2.82,2.82,0,0,0,.21,1.09,3,3,0,0,0,.58.89,2.89,2.89,0,0,0,.86.6A2.53,2.53,0,0,0,87.51,6.32Zm1.06-3.48V2.76s0,0-.08-.09l-.22-.12a1.89,1.89,0,0,0-.31-.1,1.64,1.64,0,0,0-.4,0,1.41,1.41,0,0,0-.47.07,1.17,1.17,0,0,0-.38.21.76.76,0,0,0-.24.34,1.3,1.3,0,0,0-.08.46,1.19,1.19,0,0,0,.09.47,1.16,1.16,0,0,0,.25.36,1.28,1.28,0,0,0,.37.23,1.14,1.14,0,0,0,.41.07,1.41,1.41,0,0,0,.4,0,1.89,1.89,0,0,0,.38-.12l.26-.15c.07,0,.11-.1.11-.14V4L88.73,4l.54.76-.08,0-.12,0-.18.06-.32.15a2.39,2.39,0,0,1-.47.14,2.91,2.91,0,0,1-.6.06A2.52,2.52,0,0,1,86.83,5a1.49,1.49,0,0,1-.57-.3,1.63,1.63,0,0,1-.41-.52,1.53,1.53,0,0,1-.16-.72,1.49,1.49,0,0,1,.16-.71,1.74,1.74,0,0,1,.42-.51A1.66,1.66,0,0,1,86.86,2a2.66,2.66,0,0,1,1.2,0l.4.12.29.11a.37.37,0,0,0,.17,0,.07.07,0,0,0,.06,0l.07,0,.06.05-.47.69Z"/><path class="cls-1" d="M105.14,7.1H105c0-.1,0-.15-.12-.16H99.1l-.23,0c-.06,0-.09.06-.09.14h-.16V6.62A2,2,0,0,1,99,5.43a3.73,3.73,0,0,1,.86-.87A8.29,8.29,0,0,1,101,3.89c.4-.19.78-.37,1.12-.56a4.86,4.86,0,0,0,.87-.58.92.92,0,0,0,.35-.71.74.74,0,0,0-.13-.44.89.89,0,0,0-.32-.29,1.22,1.22,0,0,0-.43-.15,2.35,2.35,0,0,0-.45,0,2.59,2.59,0,0,0-.55.08,2.55,2.55,0,0,0-.62.23,2.1,2.1,0,0,0-.52.37.7.7,0,0,0-.21.49.61.61,0,0,0,0,.17.26.26,0,0,0,.08.14l-.13.1L98.7,1.26l.13-.09.11.05a.2.2,0,0,0,.11,0s.15-.06.29-.2a3.84,3.84,0,0,1,.57-.42,4.55,4.55,0,0,1,.91-.43,3.68,3.68,0,0,1,1.31-.2,4,4,0,0,1,1,.12,2.56,2.56,0,0,1,.84.37,1.87,1.87,0,0,1,.6.65,1.93,1.93,0,0,1,.23,1,2.08,2.08,0,0,1-.23,1,2.37,2.37,0,0,1-.62.68,4.05,4.05,0,0,1-.87.48l-1,.38c-.34.13-.66.26-1,.4a3,3,0,0,0-.81.53v.13h4.3a.86.86,0,0,0,.27-.05c.08,0,.12-.14.12-.31h.16Z"/><path class="cls-1" d="M111.23,0a3.84,3.84,0,0,1,1.41.26,3.52,3.52,0,0,1,1.15.73,3.42,3.42,0,0,1,1,2.51,3.38,3.38,0,0,1-.28,1.41,3.33,3.33,0,0,1-1.92,1.81,3.84,3.84,0,0,1-1.41.25,3.88,3.88,0,0,1-1.41-.25A3.32,3.32,0,0,1,108.67,6a3.46,3.46,0,0,1-.77-1.1,3.55,3.55,0,0,1-.28-1.41,3.42,3.42,0,0,1,1-2.51,3.52,3.52,0,0,1,1.15-.73A3.88,3.88,0,0,1,111.23,0Zm0,1.12a2,2,0,0,0-.85.18,2.07,2.07,0,0,0-.67.5,2.7,2.7,0,0,0-.44.76,2.65,2.65,0,0,0-.16.94,2.67,2.67,0,0,0,.16,1,2.52,2.52,0,0,0,.44.75,2.09,2.09,0,0,0,.67.51,2.1,2.1,0,0,0,1.7,0,2.09,2.09,0,0,0,.67-.51,2.52,2.52,0,0,0,.44-.75,2.67,2.67,0,0,0,.16-1,2.65,2.65,0,0,0-.16-.94,2.7,2.7,0,0,0-.44-.76,2.07,2.07,0,0,0-.67-.5A2,2,0,0,0,111.23,1.12Z"/><path class="cls-1" d="M119.5,6.77a.35.35,0,0,0,.23-.07c.07,0,.1-.14.1-.29V2.06h-.22a1,1,0,0,0-.24.05.67.67,0,0,0-.21.09.31.31,0,0,0-.14.16h-.16V.73H119a.16.16,0,0,0,.12.16.63.63,0,0,0,.22,0,.53.53,0,0,0,.37-.14.43.43,0,0,0,.15-.33.3.3,0,0,0-.08-.24.69.69,0,0,0-.23-.07V0h2.11V.16a.5.5,0,0,0-.26.09.21.21,0,0,0-.11.19v6a.33.33,0,0,0,.11.29.37.37,0,0,0,.23.07v.16H119.5Z"/><path class="cls-1" d="M131.53,3.28a2.45,2.45,0,0,1,1.1.52,1.4,1.4,0,0,1,.42,1.11A1.6,1.6,0,0,1,132.69,6a2.45,2.45,0,0,1-.88.63,3.43,3.43,0,0,1-1.11.29,10.8,10.8,0,0,1-1.08.06,8,8,0,0,1-1.06-.08,3.11,3.11,0,0,1-1-.31,2.19,2.19,0,0,1-.77-.6,1.43,1.43,0,0,1-.31-1,2,2,0,0,1,.11-.7,1.19,1.19,0,0,1,.32-.47,1.83,1.83,0,0,1,.5-.34,4.91,4.91,0,0,1,.65-.24v0a1.91,1.91,0,0,1-.91-.45,1.17,1.17,0,0,1-.38-.93,1.54,1.54,0,0,1,.28-1,2.06,2.06,0,0,1,.73-.57,3.75,3.75,0,0,1,1-.27,8.47,8.47,0,0,1,1-.06,9,9,0,0,1,1,.06,4,4,0,0,1,1,.27,2,2,0,0,1,.78.56,1.39,1.39,0,0,1,.31,1,1.26,1.26,0,0,1-.35,1,2.26,2.26,0,0,1-.91.48h0ZM129.77,1a2.82,2.82,0,0,0-1.23.19.68.68,0,0,0-.36.65.67.67,0,0,0,.36.65,2.8,2.8,0,0,0,1.23.2,2.74,2.74,0,0,0,1.22-.2.68.68,0,0,0,.37-.65.69.69,0,0,0-.37-.65A2.77,2.77,0,0,0,129.77,1Zm0,2.76q-1.86,0-1.86,1.08t1.86,1.08c1.25,0,1.87-.36,1.87-1.08S131,3.78,129.75,3.78Z"/><path class="cls-1" d="M143.15,1.43c-.19,0-.29.07-.29.2v3a1.24,1.24,0,0,0,.46,1,2.73,2.73,0,0,0,2.78,0,1.24,1.24,0,0,0,.46-1v-3c0-.13-.11-.2-.33-.2V1.2H148v.23c-.19,0-.28.07-.28.2V4.92a1.66,1.66,0,0,1-.19.78,1.8,1.8,0,0,1-.55.66,2.8,2.8,0,0,1-1,.45,5.46,5.46,0,0,1-1.36.16,5.4,5.4,0,0,1-1.36-.16,2.71,2.71,0,0,1-.95-.45,1.83,1.83,0,0,1-.56-.66,1.78,1.78,0,0,1-.18-.78V1.63a.15.15,0,0,0-.08-.15.64.64,0,0,0-.3-.05V1.2h1.87Z"/><path class="cls-1" d="M151.36,6.7c.16,0,.24-.07.24-.2V1.63c0-.13-.08-.2-.24-.2V1.2h1.92v.23c-.06,0-.09,0-.09.07s.09.16.29.35l3.12,3.31V1.63c0-.13-.09-.2-.26-.2V1.2h1.59v.23c-.16,0-.23.07-.23.2V6.5c0,.13.07.2.23.2v.23h-1.69V6.7c.06,0,.09,0,.09-.07a.35.35,0,0,0-.13-.18l-.28-.3-3.23-3.44V6.5c0,.13.1.2.28.2v.23h-1.61Z"/><path class="cls-1" d="M161.51,6.7a.2.2,0,0,0,.11-.06s0-.08,0-.18V1.69a.48.48,0,0,0,0-.22.22.22,0,0,0-.13,0V1.2h1.81v.23c-.08,0-.13,0-.13.12a.39.39,0,0,0,.05.14c0,.05.07.13.14.24L165,4.86l1.61-2.92.14-.25a.47.47,0,0,0,0-.14c0-.08,0-.12-.1-.12V1.2h1.83v.23a.19.19,0,0,0-.12,0s-.06.06-.06.13V6.5a.18.18,0,0,0,.06.15.21.21,0,0,0,.12,0v.23H167V6.7c.19,0,.26-.07.24-.2V2.84h0L165,6.93h-.11l-2.09-4.09h0V6.5c0,.13.08.2.22.2v.23h-1.47Z"/><path class="cls-1" d="M175,1.12a4.89,4.89,0,0,1,1.35.18,3.25,3.25,0,0,1,1.1.55,2.58,2.58,0,0,1,.74.92,2.79,2.79,0,0,1,.28,1.29,2.8,2.8,0,0,1-.28,1.3,2.58,2.58,0,0,1-.74.92,3,3,0,0,1-1.1.53,5.78,5.78,0,0,1-2.7,0,3.12,3.12,0,0,1-1.1-.53,2.58,2.58,0,0,1-.74-.92,2.93,2.93,0,0,1-.27-1.3,2.92,2.92,0,0,1,.27-1.29,2.58,2.58,0,0,1,.74-.92,3.34,3.34,0,0,1,1.1-.55A4.89,4.89,0,0,1,175,1.12Zm0,1a2.46,2.46,0,0,0-.81.14,2.23,2.23,0,0,0-.71.39,1.88,1.88,0,0,0-.5.62,1.72,1.72,0,0,0-.19.83,1.76,1.76,0,0,0,.19.84,1.88,1.88,0,0,0,.5.62,2.23,2.23,0,0,0,.71.39A2.45,2.45,0,0,0,175,6a2.56,2.56,0,0,0,.82-.13,2.34,2.34,0,0,0,.71-.39,2.17,2.17,0,0,0,.5-.62,1.89,1.89,0,0,0,.19-.84,1.85,1.85,0,0,0-.19-.83,2.17,2.17,0,0,0-.5-.62,2.34,2.34,0,0,0-.71-.39A2.57,2.57,0,0,0,175,2.08Z"/><path class="cls-1" d="M184.88,1.2a3.61,3.61,0,0,1,1.81.38,1.39,1.39,0,0,1,.65,1.31,1.39,1.39,0,0,1-.13.63,1.45,1.45,0,0,1-.34.47,1.58,1.58,0,0,1-.48.33,3.35,3.35,0,0,1-.53.19l1.28,1.86a.55.55,0,0,0,.22.21,1.31,1.31,0,0,0,.27.12v.23h-2V6.7c.11,0,.17,0,.17-.12a.91.91,0,0,0-.2-.41l-1-1.53h-1.81V6.5a.16.16,0,0,0,.09.15.33.33,0,0,0,.16,0v.23h-1.73V6.7c.15,0,.23-.07.23-.2V1.63c0-.13-.08-.2-.23-.2V1.2Zm0,2.47c.85,0,1.27-.27,1.27-.8a.59.59,0,0,0-.3-.52,2,2,0,0,0-1-.19H182.8V3.67Z"/><path class="cls-1" d="M189.73,6.7a.41.41,0,0,0,.25-.15,1.11,1.11,0,0,0,.15-.23l1.94-4.24.13-.29a.52.52,0,0,0,0-.21c0-.06,0-.09,0-.1l-.07-.05V1.2h2v.23l-.09,0s-.05,0-.05.11a.45.45,0,0,0,.06.19l.13.25,2.11,4.43a.49.49,0,0,0,.14.17l.17.08v.23h-1.85v-.2l.14,0a.18.18,0,0,0,.07-.15.32.32,0,0,0,0-.14,1.07,1.07,0,0,1-.06-.17l-.35-.74h-2.79l-.37.7c0,.07-.06.13-.08.19a.49.49,0,0,0,0,.15c0,.07,0,.11.06.13a.48.48,0,0,0,.18,0v.23h-1.74Zm4.35-2.17L193,2.34l-.92,2.19Z"/><path class="cls-1" d="M201,1.2v.23c-.2,0-.3.07-.3.2V6h3.51a.42.42,0,0,0,.26-.08.22.22,0,0,0,.11-.2h.23V7.06h-.23a.11.11,0,0,0-.11-.12h-5.36V6.7c.22,0,.34-.07.34-.2V1.63c0-.13-.12-.2-.34-.2V1.2Z"/><path class="cls-1" d="M207.68,6.08a.92.92,0,0,1,1.57-.65.86.86,0,0,1,.28.65.78.78,0,0,1-.28.63.94.94,0,0,1-1.3,0A.8.8,0,0,1,207.68,6.08Z"/><path class="cls-1" d="M217.45,6.7a.44.44,0,0,0,.27-.17l.18-.33,2.41-5.07.17-.31a.68.68,0,0,0,.07-.25.2.2,0,0,0-.09-.18l-.2-.08V.08h2.2V.31l-.18.07a.2.2,0,0,0-.09.19.41.41,0,0,0,.05.21,1.58,1.58,0,0,0,.13.27l2.71,5.31a.53.53,0,0,0,.18.21l.25.13v.23h-2.29V6.7l.13,0a.14.14,0,0,0,.08-.12.82.82,0,0,0-.11-.34l-.49-1h-3.18l-.47.92a1,1,0,0,0-.13.39c0,.1.08.15.25.15v.23h-1.85Zm4.91-2.43-1.1-2.42L220,4.27Z"/><path class="cls-1" d="M230,1.2v.23c-.2,0-.3.07-.3.2V6h3.52a.42.42,0,0,0,.26-.08.22.22,0,0,0,.11-.2h.23V7.06h-.23a.11.11,0,0,0-.11-.12h-5.36V6.7c.22,0,.33-.07.33-.2V1.63c0-.13-.11-.2-.33-.2V1.2Z"/><path class="cls-1" d="M238.59,1.2v.23c-.2,0-.3.07-.3.2V6h3.52a.45.45,0,0,0,.26-.08.21.21,0,0,0,.1-.2h.24V7.06h-.24a.11.11,0,0,0-.1-.12H236.7V6.7c.23,0,.34-.07.34-.2V1.63c0-.13-.11-.2-.34-.2V1.2Z"/><path class="cls-1" d="M255,.08a4.92,4.92,0,0,1,1.13.11,2.44,2.44,0,0,1,.87.35,1.55,1.55,0,0,1,.56.63,2,2,0,0,1,.2.94,1.7,1.7,0,0,1-.51,1.32,2.8,2.8,0,0,1-1.37.61l1.74,2.47a.35.35,0,0,0,.21.16l.23,0v.23h-2.44V6.7a.65.65,0,0,0,.21,0s.08-.06.08-.11a.37.37,0,0,0-.05-.15l-.16-.23-1.43-2h-1.86V6.46a.19.19,0,0,0,.08.18.58.58,0,0,0,.31.06v.23h-2.26V6.7c.26,0,.38-.08.38-.24V.55c0-.16-.12-.24-.38-.24V.08Zm-.34,3.05a3.4,3.4,0,0,0,.78-.08,1.28,1.28,0,0,0,.5-.2.82.82,0,0,0,.26-.3,1,1,0,0,0,.08-.39,1,1,0,0,0-.08-.38.85.85,0,0,0-.26-.31,1.68,1.68,0,0,0-.5-.2,3.46,3.46,0,0,0-.78-.07h-2.25V3.13Z"/><path class="cls-1" d="M261.41,6.7a.62.62,0,0,0,.29,0,.16.16,0,0,0,.08-.15V1.63a.16.16,0,0,0-.08-.15.62.62,0,0,0-.29-.05V1.2h2v.23c-.24,0-.36.07-.36.2V6.5c0,.13.12.2.36.2v.23h-2Z"/><path class="cls-1" d="M272,3.09,271.86,3q0-.13,0-.15c0-.08-.06-.16-.17-.25a2.32,2.32,0,0,0-.45-.26A4,4,0,0,0,270,2.08a3.78,3.78,0,0,0-.91.11,2.32,2.32,0,0,0-.76.36,1.66,1.66,0,0,0-.52.62,2,2,0,0,0-.2.92,1.87,1.87,0,0,0,.21.92,1.74,1.74,0,0,0,.54.6,2.36,2.36,0,0,0,.74.33,3.09,3.09,0,0,0,.78.1A7.17,7.17,0,0,0,270.9,6a3.31,3.31,0,0,0,.92-.3V4.85h-1.34a.49.49,0,0,0-.25.05.31.31,0,0,0-.13.22h-.23V3.78h.23a.23.23,0,0,0,.13.17.87.87,0,0,0,.25,0H273v.23c-.08,0-.13.07-.15.12a.34.34,0,0,0,0,.19V5.77a.3.3,0,0,0,0,.16A.31.31,0,0,0,273,6v.16l-.37.21a4.57,4.57,0,0,1-.64.27,4.67,4.67,0,0,1-.89.21A6.55,6.55,0,0,1,270,7a5.52,5.52,0,0,1-1.53-.19,3.07,3.07,0,0,1-1.16-.57,2.48,2.48,0,0,1-.73-.91,2.93,2.93,0,0,1-.26-1.24,2.85,2.85,0,0,1,.26-1.23,2.51,2.51,0,0,1,.73-.92,3.25,3.25,0,0,1,1.16-.59,5.51,5.51,0,0,1,1.53-.2,4.16,4.16,0,0,1,.9.09,5.48,5.48,0,0,1,.67.2,4.36,4.36,0,0,1,.48.19.78.78,0,0,0,.28.09.3.3,0,0,0,.15,0,.38.38,0,0,0,.13-.08l.16.08Z"/><path class="cls-1" d="M277.73,6.5a.18.18,0,0,0,.06.15.24.24,0,0,0,.14,0v.23h-1.64V6.7a.19.19,0,0,0,.13,0,.18.18,0,0,0,.06-.15V1.63a.18.18,0,0,0-.06-.15.19.19,0,0,0-.13-.05V1.2h1.64v.23a.24.24,0,0,0-.14.05.18.18,0,0,0-.06.15V3.46h3.49V1.63a.21.21,0,0,0-.05-.15.24.24,0,0,0-.14-.05V1.2h1.64v.23a.24.24,0,0,0-.14.05.18.18,0,0,0-.06.15V6.5a.18.18,0,0,0,.06.15.24.24,0,0,0,.14,0v.23H281V6.7a.24.24,0,0,0,.14,0,.21.21,0,0,0,.05-.15v-2h-3.49Z"/><path class="cls-1" d="M287.57,6.7a.27.27,0,0,0,.13,0,.18.18,0,0,0,.06-.15V2.16h-1.69a.49.49,0,0,0-.2,0,.2.2,0,0,0-.09.17h-.23V.89h.23a.27.27,0,0,0,.09.24.32.32,0,0,0,.2.07h4.64a.28.28,0,0,0,.19-.07A.27.27,0,0,0,291,.89h.24V2.38H291a.2.2,0,0,0-.09-.17.41.41,0,0,0-.19,0H289V6.5c0,.13.08.2.24.2v.23h-1.68Z"/><path class="cls-1" d="M294.39,4.94v.11a.49.49,0,0,0,0,.12.45.45,0,0,0,.25.36,2.15,2.15,0,0,0,.59.27,4.39,4.39,0,0,0,.69.18,3.36,3.36,0,0,0,.54.06,3.87,3.87,0,0,0,.45,0,3.12,3.12,0,0,0,.53-.11,1.43,1.43,0,0,0,.44-.24.49.49,0,0,0,.18-.4.43.43,0,0,0-.31-.41,3.09,3.09,0,0,0-.81-.2l-1-.15a4.79,4.79,0,0,1-1-.23,2.17,2.17,0,0,1-.8-.47,1.15,1.15,0,0,1-.32-.87,1.58,1.58,0,0,1,.69-1.33,3.29,3.29,0,0,1,1.94-.49,4.56,4.56,0,0,1,1.05.1,4.48,4.48,0,0,1,.74.21,4.59,4.59,0,0,1,.48.22.78.78,0,0,0,.28.09.32.32,0,0,0,.16,0l.13-.07.14.14L298.69,3l-.23-.08,0-.16a.29.29,0,0,0-.11-.15,2.18,2.18,0,0,0-.81-.38,4.7,4.7,0,0,0-1.23-.16,2.56,2.56,0,0,0-.49,0,1.61,1.61,0,0,0-.42.11.79.79,0,0,0-.29.2.5.5,0,0,0-.1.31.44.44,0,0,0,.32.41,4.1,4.1,0,0,0,.8.19l1,.14a4.66,4.66,0,0,1,1,.25,2,2,0,0,1,.81.49,1.25,1.25,0,0,1,.32.9,1.5,1.5,0,0,1-.29.94,1.92,1.92,0,0,1-.69.57,2.8,2.8,0,0,1-.92.27,6.41,6.41,0,0,1-.94.07,4.31,4.31,0,0,1-.88-.09,6.75,6.75,0,0,1-.8-.19c-.24-.08-.44-.14-.6-.21a2.3,2.3,0,0,0-.3-.1.19.19,0,0,0-.16.08l-.18-.13.6-1.46Z"/><path class="cls-1" d="M312.27.08a5,5,0,0,1,1.13.11,2.44,2.44,0,0,1,.87.35,1.55,1.55,0,0,1,.56.63,2,2,0,0,1,.2.94,1.7,1.7,0,0,1-.51,1.32,2.8,2.8,0,0,1-1.37.61l1.73,2.47a.4.4,0,0,0,.22.16l.23,0v.23h-2.44V6.7a.54.54,0,0,0,.2,0c.06,0,.09-.06.09-.11a.37.37,0,0,0-.05-.15L313,6.17l-1.43-2h-1.87V6.46a.2.2,0,0,0,.09.18.56.56,0,0,0,.31.06v.23h-2.26V6.7c.25,0,.38-.08.38-.24V.55c0-.16-.13-.24-.38-.24V.08Zm-.34,3.05a3.4,3.4,0,0,0,.78-.08,1.17,1.17,0,0,0,.49-.2.67.67,0,0,0,.26-.3.85.85,0,0,0,.08-.39.81.81,0,0,0-.08-.38.69.69,0,0,0-.26-.31,1.51,1.51,0,0,0-.49-.2,3.46,3.46,0,0,0-.78-.07h-2.26V3.13Z"/><path class="cls-1" d="M323.57,2.41c0-.16-.13-.25-.4-.25H320v1.3h2a1.27,1.27,0,0,0,.32,0,.16.16,0,0,0,.11-.17h.23V4.64h-.26a.13.13,0,0,0-.1-.18,2.15,2.15,0,0,0-.41,0H320V6h3.33a.46.46,0,0,0,.27-.08.2.2,0,0,0,.1-.18h.23V7.07h-.23c0-.08,0-.12-.1-.13h-5V6.7a.21.21,0,0,0,.13,0,.16.16,0,0,0,.07-.15V1.63a.16.16,0,0,0-.07-.15.21.21,0,0,0-.13-.05V1.2h4.63c.27,0,.4-.08.4-.24h.24V2.41Z"/><path class="cls-1" d="M327.47,4.94a.45.45,0,0,1,0,.11s0,.08,0,.12a.47.47,0,0,0,.25.36,2.29,2.29,0,0,0,.59.27A4.23,4.23,0,0,0,329,6a3.25,3.25,0,0,0,.54.06A3.63,3.63,0,0,0,330,6a3.12,3.12,0,0,0,.53-.11,1.48,1.48,0,0,0,.45-.24.49.49,0,0,0,.18-.4.44.44,0,0,0-.32-.41,3,3,0,0,0-.8-.2l-1-.15a4.75,4.75,0,0,1-1.05-.23,2.17,2.17,0,0,1-.8-.47,1.15,1.15,0,0,1-.32-.87,1.58,1.58,0,0,1,.69-1.33,3.29,3.29,0,0,1,1.94-.49,4.56,4.56,0,0,1,1.05.1,4.48,4.48,0,0,1,.74.21,4.88,4.88,0,0,1,.49.22.72.72,0,0,0,.28.09.28.28,0,0,0,.15,0l.13-.07.15.14L331.77,3l-.24-.08a.78.78,0,0,1,0-.16.27.27,0,0,0-.12-.15,2.11,2.11,0,0,0-.81-.38,4.56,4.56,0,0,0-1.22-.16,2.67,2.67,0,0,0-.5,0,1.72,1.72,0,0,0-.42.11.75.75,0,0,0-.28.2.45.45,0,0,0-.11.31.44.44,0,0,0,.32.41,4.29,4.29,0,0,0,.8.19c.33.05.67.1,1.05.14a4.79,4.79,0,0,1,1,.25,2,2,0,0,1,.8.49,1.25,1.25,0,0,1,.32.9,1.56,1.56,0,0,1-.28.94,2,2,0,0,1-.7.57,2.74,2.74,0,0,1-.92.27,6.32,6.32,0,0,1-.94.07,4.31,4.31,0,0,1-.88-.09,7.26,7.26,0,0,1-.8-.19c-.23-.08-.44-.14-.6-.21a2.3,2.3,0,0,0-.3-.1.23.23,0,0,0-.16.08l-.18-.13.6-1.46Z"/><path class="cls-1" d="M340.66,2.41c0-.16-.13-.25-.4-.25h-3.18v1.3h2a1.27,1.27,0,0,0,.32,0,.16.16,0,0,0,.11-.17h.23V4.64h-.26a.13.13,0,0,0-.1-.18,2.15,2.15,0,0,0-.41,0h-1.9V6h3.34a.45.45,0,0,0,.26-.08.2.2,0,0,0,.1-.18H341V7.07h-.24c0-.08,0-.12-.1-.13h-5V6.7a.21.21,0,0,0,.12,0,.16.16,0,0,0,.07-.15V1.63a.16.16,0,0,0-.07-.15.21.21,0,0,0-.12-.05V1.2h4.62c.27,0,.4-.08.4-.24h.24V2.41Z"/><path class="cls-1" d="M347.72,1.2a3.61,3.61,0,0,1,1.81.38,1.39,1.39,0,0,1,.65,1.31,1.54,1.54,0,0,1-.12.63,1.65,1.65,0,0,1-.35.47,1.58,1.58,0,0,1-.48.33,3.35,3.35,0,0,1-.53.19L350,6.37a.57.57,0,0,0,.23.21,1.23,1.23,0,0,0,.26.12v.23h-2V6.7c.11,0,.17,0,.17-.12a.91.91,0,0,0-.2-.41l-1-1.53h-1.81V6.5a.16.16,0,0,0,.09.15.33.33,0,0,0,.16,0v.23h-1.73V6.7c.15,0,.23-.07.23-.2V1.63c0-.13-.08-.2-.23-.2V1.2Zm0,2.47c.85,0,1.27-.27,1.27-.8a.59.59,0,0,0-.3-.52,2,2,0,0,0-1-.19h-2.06V3.67Z"/><path class="cls-1" d="M359.3,1.43c-.12,0-.23.1-.32.3l-1.9,4.21a4.19,4.19,0,0,1-.22.46.32.32,0,0,0-.07.18s.08.09.23.12v.23h-2V6.7l.12-.06a.12.12,0,0,0,.06-.1.52.52,0,0,0-.09-.21c0-.09-.12-.22-.2-.39l-2-4.26a.42.42,0,0,0-.13-.18.25.25,0,0,0-.17-.07V1.2h1.84v.23a.15.15,0,0,0-.16.17.73.73,0,0,0,.08.26c0,.1.1.22.16.35l1.5,3.25,1.42-3.15c.09-.21.17-.37.22-.47a.47.47,0,0,0,.06-.25.17.17,0,0,0-.19-.16V1.2h1.7Z"/><path class="cls-1" d="M367,2.41c0-.16-.13-.25-.4-.25h-3.18v1.3h2a1.22,1.22,0,0,0,.32,0,.16.16,0,0,0,.11-.17h.23V4.64h-.26a.13.13,0,0,0-.1-.18,2.15,2.15,0,0,0-.41,0h-1.9V6h3.34a.45.45,0,0,0,.26-.08.2.2,0,0,0,.1-.18h.24V7.07h-.24c0-.08,0-.12-.1-.13h-5V6.7a.27.27,0,0,0,.13,0,.18.18,0,0,0,.06-.15V1.63a.18.18,0,0,0-.06-.15.27.27,0,0,0-.13-.05V1.2h4.62c.27,0,.4-.08.4-.24h.24V2.41Z"/><path class="cls-1" d="M370.34,6.7c.2,0,.3-.07.3-.2V1.63c0-.13-.1-.2-.3-.2V1.2H374a3.06,3.06,0,0,1,1.31.25,2.53,2.53,0,0,1,.9.64,2.46,2.46,0,0,1,.5.91,3.51,3.51,0,0,1,.17,1.06,3.85,3.85,0,0,1-.16,1.07,2.59,2.59,0,0,1-.49.91,2.54,2.54,0,0,1-.88.64,3,3,0,0,1-1.3.25h-3.67ZM373.58,6a4.72,4.72,0,0,0,.77-.06,1.58,1.58,0,0,0,.64-.26,1.42,1.42,0,0,0,.43-.59,2.66,2.66,0,0,0,.17-1,2.59,2.59,0,0,0-.17-1,1.38,1.38,0,0,0-.43-.56,1.54,1.54,0,0,0-.64-.23,6.23,6.23,0,0,0-.77,0h-1.69V6Z"/><path class="cls-1" d="M379.78,6.08a.89.89,0,0,1,.27-.65.93.93,0,0,1,1.31,0,.89.89,0,0,1,.27.65.8.8,0,0,1-.27.63,1,1,0,0,1-1.31,0A.8.8,0,0,1,379.78,6.08Z"/></g></g></svg>