<svg xmlns="http://www.w3.org/2000/svg" viewBox="0 0 734.87 157.08"><defs><style>.cls-1{fill:#040000;}</style></defs><title>logo</title><g id="レイヤー_2" data-name="レイヤー 2"><g id="レイヤー_1-2" data-name="レイヤー 1"><polygon class="cls-1" points="0 42.16 0 141.94 84.88 141.94 84.88 144.21 94.25 157.08 116.42 157.08 116.42 42.16 79.38 42.16 79.38 91.92 29.81 91.92 29.81 42.16 0 42.16"/><polygon class="cls-1" points="130.38 42.16 130.38 141.94 159 141.94 159 97.06 208.38 97.06 208.38 141.94 235.25 141.94 235.25 49.11 160 49.11 155 42.16 130.38 42.16"/><polygon class="cls-1" points="248.96 42.16 248.96 141.94 275.02 141.94 275.02 97 290.44 97 290.44 141.94 311.83 141.94 311.83 97.03 326.94 97.03 326.94 141.94 353.44 141.94 353.44 49.11 278.19 49.11 273.31 42.16 248.96 42.16"/><path class="cls-1" d="M364.21,49.11v92.83h101V49.11Zm68.67,73.22H397.21V71.08h35.67Z"/><polygon class="cls-1" points="475.31 49.11 475.31 141.94 499.34 141.94 499.34 92.25 552.75 92.25 575.67 69.39 575.67 42.16 558.21 42.16 552.38 48.42 525.94 48.42 503.91 70.54 499.36 70.54 500.9 69 500.9 49.11 475.31 49.11"/><rect class="cls-1" x="707.19" width="27.69" height="149.13"/><path class="cls-1" d="M685.14,124.81V49.11H584.88v91.58h67.74v1.25l5.23,7.88h35.74v-25Zm-31.58-2.5H617.62V70.88h35.94Z"/></g></g></svg>