<svg xmlns="http://www.w3.org/2000/svg" viewBox="0 0 108.6 268.6"><title>panel</title><g id="レイヤー_2" data-name="レイヤー 2"><g id="top"><path d="M42,105l-9,9H9.5l-9-9V9l9-9H33l9,9ZM17.89,12.3l-3,3V98.7l3,3h6.75l3-3V15.3l-3-3Z"/><path d="M88.39,12.3h-10V0h24.45V114H88.39Z"/><path d="M0,214.6l9-9H22.2l3-3V169.9l-3-3H17.7l-3,3v13.8H.3V163.6l9-9H30.6l9,9v45.6l-9,9H17.4l-3,3v35.1H39v12.3H0Z"/><path d="M108.6,201.7l-9,9,9,9.15V259.6l-9,9H76.05l-9-9V237.1h14.4v16.5l3,3H91.2l3-3V220l-3-3H78.45V204.4H91.2l3-3V169.6l-3-3H84.3l-3,3v16.5H66.9V163.6l9-9H99.6l9,9Z"/><path d="M14.38,125.8h5.33l1.44,1.44v7.59l-1.27,1.27L21.32,144H19.09l-1.42-7.77h-1V144H14.38Zm4.47,8.12V128.2l-.48-.48H16.69v6.67h1.68Z"/><path d="M27.58,125.8h5.69v2H29.89v6h3v2h-3v6.29h3.43v2H27.58Z"/><path d="M39.34,144V125.8h2.31v16.28H44.7v2Z"/><path d="M50.53,125.8h5.69v2H52.83v6h3v2h-3v6.29h3.43v2H50.53Z"/><path d="M64.47,139.34,64,144H61.71L63.9,125.8h3.31L69.44,144H67l-.46-4.7Zm1.06-11.16-.89,9.19h1.78Z"/><path d="M79.18,128.2l-.48-.48h-.84l-.48.48v5.14l.48.48h2.26l1.44,1.44v7.34L80.12,144H76.47L75,142.6v-3.81h2.31v2.85l.48.48h1l.48-.48v-5.37l-.48-.48H76.52l-1.44-1.44v-7.11l1.44-1.44h3.53l1.44,1.44v3.84H79.18Z"/><path d="M87.73,125.8h5.69v2H90v6h3v2H90v6.29h3.43v2H87.73Z"/></g></g></svg>